<mxfile host="app.diagrams.net" modified="2021-04-23T08:44:11.513Z" agent="5.0 (Windows NT 10.0; WOW64) AppleWebKit/537.36 (KHTML, like Gecko) Chrome/90.0.4430.85 Safari/537.36" etag="_PMiEujdc2nCaS6gSg8r" version="14.6.6" type="github">
  <diagram name="Page-1" id="a7904f86-f2b4-8e86-fa97-74104820619b">
    <mxGraphModel dx="1422" dy="762" grid="1" gridSize="10" guides="1" tooltips="1" connect="1" arrows="1" fold="1" page="1" pageScale="1" pageWidth="1100" pageHeight="850" background="#ffffff" math="0" shadow="0">
      <root>
        <mxCell id="0" />
        <mxCell id="1" parent="0" />
        <mxCell id="24794b860abc3c2d-19" value="&lt;p style=&quot;margin: 4px 0px 0px ; text-align: center ; text-decoration: underline ; font-size: 15px&quot;&gt;&lt;b style=&quot;font-size: 15px&quot;&gt;FileInfo&lt;/b&gt;&lt;/p&gt;&lt;hr style=&quot;font-size: 15px&quot;&gt;&lt;p style=&quot;margin: 0px 0px 0px 8px ; font-size: 15px&quot;&gt;field1 = Id&lt;br style=&quot;font-size: 15px&quot;&gt;field2 = ObjectId&lt;br style=&quot;font-size: 15px&quot;&gt;field3 = BucketName&lt;/p&gt;&lt;p style=&quot;margin: 0px 0px 0px 8px ; font-size: 15px&quot;&gt;field4 = Type&lt;br style=&quot;font-size: 15px&quot;&gt;&lt;/p&gt;&lt;p style=&quot;margin: 0px 0px 0px 8px ; font-size: 15px&quot;&gt;field5 = IsTemplate&lt;br style=&quot;font-size: 15px&quot;&gt;&lt;/p&gt;&lt;p style=&quot;margin: 0px 0px 0px 8px ; font-size: 15px&quot;&gt;field6 = CreationTime&lt;br style=&quot;font-size: 15px&quot;&gt;&lt;/p&gt;&lt;p style=&quot;margin: 0px 0px 0px 8px ; font-size: 15px&quot;&gt;field7 = LastModifiedTime&lt;br&gt;field8 = UserId&lt;br&gt;&lt;/p&gt;&lt;p style=&quot;margin: 0px 0px 0px 8px ; font-size: 15px&quot;&gt;field9 = CategoryId&lt;/p&gt;" style="verticalAlign=top;align=left;overflow=fill;fontSize=15;fontFamily=Helvetica;html=1;rounded=0;shadow=0;comic=0;labelBackgroundColor=none;strokeWidth=1" parent="1" vertex="1">
          <mxGeometry x="210" width="180" height="230" as="geometry" />
        </mxCell>
        <mxCell id="4iH1GzRxDfgeXJONlSuH-14" style="edgeStyle=orthogonalEdgeStyle;rounded=1;orthogonalLoop=1;jettySize=auto;html=1;entryX=1;entryY=0.5;entryDx=0;entryDy=0;fontSize=15;endArrow=none;endFill=0;strokeColor=#000000;" parent="1" source="24794b860abc3c2d-20" target="4iH1GzRxDfgeXJONlSuH-5" edge="1">
          <mxGeometry relative="1" as="geometry" />
        </mxCell>
        <mxCell id="24794b860abc3c2d-20" value="&lt;p style=&quot;margin: 4px 0px 0px ; text-align: center ; text-decoration: underline ; font-size: 15px&quot;&gt;&lt;b style=&quot;font-size: 15px&quot;&gt;UserSignature&lt;/b&gt;&lt;/p&gt;&lt;hr style=&quot;font-size: 15px&quot;&gt;&lt;p style=&quot;margin: 0px 0px 0px 8px ; font-size: 15px&quot;&gt;field1 = Id&lt;br style=&quot;font-size: 15px&quot;&gt;field2 = UserId&lt;br style=&quot;font-size: 15px&quot;&gt;field3 = Type&lt;/p&gt;&lt;p style=&quot;margin: 0px 0px 0px 8px ; font-size: 15px&quot;&gt;field4 = BucketName&lt;/p&gt;&lt;p style=&quot;margin: 0px 0px 0px 8px ; font-size: 15px&quot;&gt;field5 = ObjectId&lt;br style=&quot;font-size: 15px&quot;&gt;&lt;/p&gt;&lt;p style=&quot;margin: 0px 0px 0px 8px&quot;&gt;field6 = CreationTime&lt;br&gt;&lt;/p&gt;&lt;p style=&quot;margin: 0px 0px 0px 8px&quot;&gt;field7 = LastModifiedTime&lt;/p&gt;" style="verticalAlign=top;align=left;overflow=fill;fontSize=15;fontFamily=Helvetica;html=1;rounded=0;shadow=0;comic=0;labelBackgroundColor=none;strokeWidth=1" parent="1" vertex="1">
          <mxGeometry x="270" y="270" width="180" height="195" as="geometry" />
        </mxCell>
        <mxCell id="24794b860abc3c2d-24" value="&lt;p style=&quot;margin: 4px 0px 0px ; text-align: center ; text-decoration: underline ; font-size: 15px&quot;&gt;&lt;b style=&quot;font-size: 15px&quot;&gt;UserContact&lt;/b&gt;&lt;/p&gt;&lt;hr style=&quot;font-size: 15px&quot;&gt;&lt;p style=&quot;margin: 0px 0px 0px 8px ; font-size: 15px&quot;&gt;field1 = Id&lt;br style=&quot;font-size: 15px&quot;&gt;field2 = UserId&lt;br style=&quot;font-size: 15px&quot;&gt;field3 = FullName&lt;/p&gt;&lt;p style=&quot;margin: 0px 0px 0px 8px ; font-size: 15px&quot;&gt;field4 = Email&lt;br style=&quot;font-size: 15px&quot;&gt;&lt;/p&gt;&lt;p style=&quot;margin: 0px 0px 0px 8px ; font-size: 15px&quot;&gt;field5 = PhoneNumber&lt;br style=&quot;font-size: 15px&quot;&gt;&lt;/p&gt;&lt;p style=&quot;margin: 0px 0px 0px 8px ; font-size: 15px&quot;&gt;field6 = GroupId&lt;/p&gt;&lt;p style=&quot;margin: 0px 0px 0px 8px&quot;&gt;field6 = CreationTime&lt;br&gt;&lt;/p&gt;&lt;p style=&quot;margin: 0px 0px 0px 8px&quot;&gt;field7 = LastModifiedTime&lt;/p&gt;" style="verticalAlign=top;align=left;overflow=fill;fontSize=15;fontFamily=Helvetica;html=1;rounded=0;shadow=0;comic=0;labelBackgroundColor=none;strokeWidth=1" parent="1" vertex="1">
          <mxGeometry x="820" y="15" width="190" height="190" as="geometry" />
        </mxCell>
        <mxCell id="24794b860abc3c2d-26" value="&lt;p style=&quot;margin: 4px 0px 0px ; text-align: center ; text-decoration: underline ; font-size: 15px&quot;&gt;&lt;b style=&quot;font-size: 15px&quot;&gt;Category&lt;/b&gt;&lt;/p&gt;&lt;hr style=&quot;font-size: 15px&quot;&gt;&lt;p style=&quot;margin: 0px 0px 0px 8px ; font-size: 15px&quot;&gt;field1 = Id&lt;br style=&quot;font-size: 15px&quot;&gt;field2 = UserId&lt;br style=&quot;font-size: 15px&quot;&gt;field3 = Level&lt;/p&gt;&lt;p style=&quot;margin: 0px 0px 0px 8px ; font-size: 15px&quot;&gt;field4 = Name&lt;br style=&quot;font-size: 15px&quot;&gt;&lt;/p&gt;&lt;p style=&quot;margin: 0px 0px 0px 8px&quot;&gt;field5 = CreationTime&lt;br&gt;&lt;/p&gt;&lt;p style=&quot;margin: 0px 0px 0px 8px&quot;&gt;field6 = LastModifiedTime&lt;/p&gt;" style="verticalAlign=top;align=left;overflow=fill;fontSize=15;fontFamily=Helvetica;html=1;rounded=0;shadow=0;comic=0;labelBackgroundColor=none;strokeWidth=1" parent="1" vertex="1">
          <mxGeometry x="530" y="15" width="190" height="165" as="geometry" />
        </mxCell>
        <mxCell id="4iH1GzRxDfgeXJONlSuH-11" style="edgeStyle=orthogonalEdgeStyle;orthogonalLoop=1;jettySize=auto;html=1;entryX=0;entryY=0.5;entryDx=0;entryDy=0;fontSize=15;rounded=1;endArrow=none;endFill=0;" parent="1" source="4iH1GzRxDfgeXJONlSuH-5" target="24794b860abc3c2d-19" edge="1">
          <mxGeometry relative="1" as="geometry">
            <Array as="points">
              <mxPoint x="120" y="135" />
            </Array>
          </mxGeometry>
        </mxCell>
        <mxCell id="4iH1GzRxDfgeXJONlSuH-5" value="&lt;p style=&quot;margin: 4px 0px 0px ; text-align: center ; text-decoration: underline ; font-size: 15px&quot;&gt;&lt;b style=&quot;font-size: 15px&quot;&gt;SignatureDetail&lt;/b&gt;&lt;/p&gt;&lt;hr style=&quot;font-size: 15px&quot;&gt;&lt;p style=&quot;margin: 0px 0px 0px 8px ; font-size: 15px&quot;&gt;field1 = Id&lt;br style=&quot;font-size: 15px&quot;&gt;field2 = FileInfoId&lt;br style=&quot;font-size: 15px&quot;&gt;field3 = PositionX&lt;/p&gt;&lt;p style=&quot;margin: 0px 0px 0px 8px ; font-size: 15px&quot;&gt;field4 = PositionY&lt;/p&gt;&lt;p style=&quot;margin: 0px 0px 0px 8px ; font-size: 15px&quot;&gt;field5 = Status&lt;/p&gt;&lt;p style=&quot;margin: 0px 0px 0px 8px ; font-size: 15px&quot;&gt;field6 = ValueSignature&lt;/p&gt;&lt;p style=&quot;margin: 0px 0px 0px 8px&quot;&gt;field7 = CreationTime&lt;br&gt;&lt;/p&gt;&lt;p style=&quot;margin: 0px 0px 0px 8px&quot;&gt;field8 = LastModifiedTime&lt;/p&gt;" style="verticalAlign=top;align=left;overflow=fill;fontSize=15;fontFamily=Helvetica;html=1;rounded=0;shadow=0;comic=0;labelBackgroundColor=none;strokeWidth=1" parent="1" vertex="1">
          <mxGeometry x="10" y="220" width="180" height="195" as="geometry" />
        </mxCell>
        <mxCell id="aI2OcYRLoV-RraJJ0wEz-3" style="edgeStyle=orthogonalEdgeStyle;rounded=1;orthogonalLoop=1;jettySize=auto;html=1;exitX=0;exitY=0.5;exitDx=0;exitDy=0;endArrow=none;endFill=0;" edge="1" parent="1" source="aI2OcYRLoV-RraJJ0wEz-2" target="24794b860abc3c2d-24">
          <mxGeometry relative="1" as="geometry" />
        </mxCell>
        <mxCell id="aI2OcYRLoV-RraJJ0wEz-2" value="&lt;p style=&quot;margin: 4px 0px 0px ; text-align: center ; text-decoration: underline ; font-size: 15px&quot;&gt;&lt;b style=&quot;font-size: 15px&quot;&gt;GroupContact&lt;/b&gt;&lt;/p&gt;&lt;hr style=&quot;font-size: 15px&quot;&gt;&lt;p style=&quot;margin: 0px 0px 0px 8px ; font-size: 15px&quot;&gt;field1 = Id&lt;br style=&quot;font-size: 15px&quot;&gt;field2 = UserId&lt;br style=&quot;font-size: 15px&quot;&gt;field3 = GroupName&lt;/p&gt;&lt;p style=&quot;margin: 0px 0px 0px 8px&quot;&gt;field5 = CreationTime&lt;br&gt;&lt;/p&gt;&lt;p style=&quot;margin: 0px 0px 0px 8px&quot;&gt;field6 = LastModifiedTime&lt;/p&gt;" style="verticalAlign=top;align=left;overflow=fill;fontSize=15;fontFamily=Helvetica;html=1;rounded=0;shadow=0;comic=0;labelBackgroundColor=none;strokeWidth=1" vertex="1" parent="1">
          <mxGeometry x="840" y="295" width="190" height="165" as="geometry" />
        </mxCell>
      </root>
    </mxGraphModel>
  </diagram>
</mxfile>
